<svg width="402" height="98" viewBox="0 0 402 98" fill="none" xmlns="http://www.w3.org/2000/svg">
<path d="M119.287 64.9477C116.519 64.9477 113.937 64.4516 111.603 63.4905C109.27 62.5293 107.217 61.1031 105.506 59.2739C103.795 57.4136 102.426 55.1503 101.462 52.5149C100.497 49.8485 100.031 46.8411 100.031 43.4616C100.031 38.997 100.84 35.1835 102.488 31.99C104.106 28.7966 106.377 26.3162 109.27 24.58C112.163 22.8437 115.492 21.9756 119.287 21.9756C124.171 21.9756 128.06 23.0917 130.953 25.3551C133.846 27.6184 135.837 30.7188 136.895 34.7184L130.798 35.7725C129.958 33.2922 128.589 31.3389 126.722 29.8507C124.856 28.3935 122.492 27.6184 119.63 27.6184C116.705 27.5874 114.248 28.2385 112.319 29.5717C110.359 30.9048 108.897 32.7341 107.932 35.1214C106.968 37.5088 106.439 40.2682 106.439 43.4306C106.408 46.5931 106.906 49.3525 107.87 51.7088C108.835 54.0651 110.328 55.9254 112.288 57.2276C114.248 58.5608 116.705 59.2119 119.63 59.2429C121.994 59.2739 124.016 58.8398 125.727 57.9407C127.438 57.0415 128.776 55.7084 129.771 53.9411C130.767 52.1739 131.42 50.0346 131.7 47.4612H123.643V42.6245H138.077C138.108 42.9656 138.139 43.4306 138.171 43.9887C138.202 44.5468 138.202 44.9188 138.202 45.0739C138.202 48.8874 137.455 52.2979 135.993 55.3053C134.5 58.3127 132.353 60.6691 129.553 62.3743C126.722 64.0795 123.3 64.9477 119.287 64.9477Z" fill="#171923"/>
<path d="M156.307 64.9472C153.197 64.9472 150.49 64.2341 148.219 62.8389C145.948 61.4437 144.175 59.5214 142.931 57.0721C141.686 54.6227 141.064 51.7703 141.064 48.5769C141.064 45.3524 141.686 42.5 142.962 40.0507C144.237 37.6013 146.01 35.679 148.281 34.3148C150.552 32.9507 153.228 32.2686 156.276 32.2686C159.387 32.2686 162.094 32.9817 164.365 34.3769C166.636 35.7721 168.409 37.6943 169.653 40.1437C170.898 42.593 171.52 45.4144 171.52 48.6079C171.52 51.8323 170.898 54.6847 169.622 57.1341C168.378 59.5834 166.605 61.5057 164.303 62.9009C162.094 64.2651 159.387 64.9472 156.307 64.9472ZM156.307 59.3044C159.294 59.3044 161.503 58.3122 162.965 56.297C164.427 54.3127 165.174 51.7083 165.174 48.5769C165.174 45.3524 164.427 42.748 162.934 40.8258C161.44 38.8725 159.232 37.9114 156.307 37.9114C154.285 37.9114 152.637 38.3764 151.33 39.2755C150.023 40.1747 149.059 41.4459 148.437 43.0271C147.815 44.6083 147.472 46.4686 147.472 48.5769C147.472 51.8323 148.219 54.4367 149.712 56.39C151.206 58.3122 153.414 59.3044 156.307 59.3044Z" fill="#171923"/>
<path d="M190.247 64.9472C187.136 64.9472 184.429 64.2341 182.159 62.8389C179.888 61.4437 178.114 59.5214 176.87 57.0721C175.626 54.6227 175.003 51.7703 175.003 48.5769C175.003 45.3524 175.626 42.5 176.901 40.0507C178.177 37.6013 179.95 35.679 182.221 34.3148C184.492 32.9507 187.167 32.2686 190.216 32.2686C193.327 32.2686 196.033 32.9817 198.304 34.3769C200.575 35.7721 202.348 37.6943 203.593 40.1437C204.837 42.593 205.459 45.4144 205.459 48.6079C205.459 51.8323 204.837 54.6847 203.562 57.1341C202.317 59.5834 200.544 61.5057 198.242 62.9009C196.002 64.2651 193.327 64.9472 190.247 64.9472ZM190.247 59.3044C193.233 59.3044 195.442 58.3122 196.904 56.297C198.366 54.3127 199.113 51.7083 199.113 48.5769C199.113 45.3524 198.366 42.748 196.873 40.8258C195.38 38.8725 193.171 37.9114 190.247 37.9114C188.225 37.9114 186.576 38.3764 185.269 39.2755C183.963 40.1747 182.998 41.4459 182.376 43.0271C181.754 44.6083 181.412 46.4686 181.412 48.5769C181.412 51.8323 182.159 54.4367 183.652 56.39C185.145 58.3122 187.323 59.3044 190.247 59.3044Z" fill="#171923"/>
<path d="M223.005 64.9472C220.112 64.9472 217.623 64.2341 215.508 62.8079C213.392 61.3817 211.775 59.4284 210.655 56.9481C209.504 54.4677 208.944 51.6773 208.944 48.5769C208.944 45.4765 209.504 42.6861 210.686 40.2057C211.837 37.7564 213.486 35.8031 215.601 34.3769C217.717 32.9507 220.236 32.2376 223.161 32.2376C226.085 32.2376 228.574 32.9507 230.565 34.3769C232.556 35.8031 234.08 37.7564 235.107 40.2057C236.133 42.6861 236.631 45.4455 236.631 48.5459C236.631 51.6463 236.102 54.4367 235.076 56.8861C234.049 59.3354 232.525 61.3197 230.502 62.7459C228.48 64.2341 225.992 64.9472 223.005 64.9472ZM223.845 59.5214C225.836 59.5214 227.423 59.0564 228.667 58.1263C229.911 57.1961 230.814 55.8939 231.405 54.2507C231.996 52.6075 232.276 50.7162 232.276 48.5769C232.276 46.4376 231.996 44.5463 231.405 42.9031C230.814 41.2599 229.911 39.9887 228.698 39.0586C227.485 38.1284 225.929 37.6944 224.063 37.6944C222.072 37.6944 220.423 38.1904 219.148 39.1516C217.872 40.1127 216.908 41.4459 216.286 43.0891C215.663 44.7324 215.352 46.5616 215.352 48.6079C215.352 50.6542 215.663 52.5145 216.286 54.1577C216.908 55.8009 217.841 57.1341 219.117 58.0952C220.33 59.0254 221.916 59.5214 223.845 59.5214ZM232.276 64.0791V41.7869H231.591V22.7812H237.626V64.0791H232.276Z" fill="#171923"/>
<path d="M242.231 37.9426V33.1059H261.239V37.9426H242.231ZM247.395 64.0793V32.0208C247.395 31.2457 247.426 30.4085 247.488 29.5094C247.551 28.6103 247.706 27.7422 247.986 26.874C248.266 26.0059 248.733 25.1998 249.386 24.4867C250.164 23.6186 251.035 23.0295 251.968 22.6574C252.901 22.2854 253.835 22.0684 254.768 22.0373C255.701 21.9753 256.541 21.9443 257.35 21.9443H261.27V26.874H257.63C256.199 26.874 255.141 27.2151 254.457 27.9282C253.741 28.6413 253.399 29.6024 253.399 30.9046V64.1103H247.395V64.0793ZM267.305 28.0212V22.2234H273.309V28.0212H267.305ZM267.305 64.0793V33.1059H273.309V64.0793H267.305Z" fill="#171923"/>
<path d="M280.806 64.0794V33.106H286.157V40.6091L285.41 39.648C285.784 38.6558 286.281 37.7257 286.904 36.9196C287.526 36.0825 288.241 35.4004 289.019 34.8733C289.797 34.3152 290.668 33.8501 291.663 33.5401C292.628 33.23 293.623 33.044 294.65 32.951C295.676 32.889 296.641 32.951 297.574 33.106V38.7178C296.547 38.4388 295.427 38.3768 294.183 38.5008C292.939 38.6248 291.819 38.9969 290.761 39.679C289.797 40.299 289.019 41.0742 288.459 41.9733C287.899 42.8724 287.495 43.8646 287.246 44.9807C286.997 46.0659 286.872 47.244 286.872 48.4532V64.0794H280.806Z" fill="#171923"/>
<path d="M301.867 64.0793V33.1059H307.218V42.0662H307.902V64.0793H301.867ZM320.502 64.0793L320.533 44.8876C320.533 42.6243 319.973 40.857 318.822 39.5858C317.671 38.3147 316.146 37.6636 314.218 37.6636C312.32 37.6636 310.796 38.3147 309.613 39.6168C308.462 40.919 307.871 42.6243 307.871 44.7326L305.009 42.9033C305.009 40.888 305.507 39.0588 306.471 37.4775C307.436 35.8963 308.773 34.6251 310.453 33.726C312.133 32.7959 314 32.3618 316.115 32.3618C318.324 32.3618 320.19 32.8269 321.746 33.757C323.301 34.6871 324.484 35.9893 325.292 37.6326C326.101 39.3068 326.506 41.2291 326.506 43.4304L326.475 64.1103H320.502V64.0793ZM339.105 64.0793L339.136 44.7636C339.136 42.5313 338.576 40.795 337.425 39.5238C336.274 38.2837 334.75 37.6326 332.883 37.6326C331.732 37.6326 330.674 37.8806 329.741 38.4077C328.777 38.9347 328.03 39.7099 327.439 40.764C326.848 41.8182 326.568 43.1203 326.568 44.6706L323.675 43.2134C323.644 41.043 324.11 39.1208 325.075 37.4775C326.039 35.8343 327.377 34.5631 329.025 33.664C330.705 32.7649 332.572 32.2998 334.625 32.2998C337.985 32.2998 340.567 33.2919 342.434 35.3072C344.269 37.3225 345.202 39.9889 345.202 43.3064L345.171 64.0483H339.105V64.0793Z" fill="#171923"/>
<path d="M363.369 64.9162C359.605 64.9162 356.525 64.0791 354.13 62.4358C351.766 60.7616 350.304 58.4363 349.744 55.3978L355.903 54.4367C356.277 56.0489 357.179 57.3201 358.579 58.2502C359.979 59.1804 361.69 59.6454 363.774 59.6454C365.64 59.6454 367.134 59.2734 368.191 58.4983C369.249 57.7232 369.778 56.669 369.778 55.3358C369.778 54.5607 369.591 53.9096 369.218 53.4135C368.845 52.9175 368.067 52.4524 366.885 52.0183C365.703 51.5843 363.867 51.0262 361.441 50.3751C358.765 49.693 356.65 48.9489 355.094 48.1428C353.539 47.3367 352.419 46.4376 351.766 45.3524C351.112 44.2983 350.77 42.9961 350.77 41.5079C350.77 39.6476 351.268 38.0044 352.263 36.6092C353.259 35.214 354.659 34.1288 356.494 33.3537C358.299 32.5786 360.445 32.2065 362.872 32.2065C365.236 32.2065 367.383 32.5786 369.218 33.3227C371.085 34.0668 372.578 35.121 373.729 36.4851C374.88 37.8493 375.564 39.4616 375.813 41.2908L369.654 42.407C369.436 40.9188 368.751 39.7406 367.538 38.8725C366.356 38.0044 364.8 37.5393 362.903 37.4773C361.067 37.4153 359.605 37.6943 358.485 38.3764C357.365 39.0585 356.774 39.9886 356.774 41.1668C356.774 41.8489 356.992 42.438 357.428 42.9031C357.863 43.3681 358.703 43.8332 359.947 44.2673C361.192 44.7013 363.027 45.2284 365.485 45.8485C368.098 46.5306 370.151 47.2437 371.707 48.0808C373.231 48.8869 374.351 49.848 375.004 50.9642C375.658 52.0804 376 53.4446 376 55.0258C376 58.0952 374.88 60.4825 372.64 62.2188C370.4 64.0481 367.32 64.9162 363.369 64.9162Z" fill="#171923"/>
<path d="M24 31.4319H52.9937H81.9875V21.4794C81.9875 18.069 79.2188 15.3096 75.7967 15.3096C75.7967 15.3096 58.6867 15.8676 52.9937 15.8676C47.3008 15.8676 30.1907 15.3096 30.1907 15.3096C26.7687 15.3096 24 18.069 24 21.4794V31.4319Z" fill="#DBB879"/>
<path d="M31.684 71.5511L41.9811 79.0542C48.5451 83.8289 57.4735 83.8289 64.0375 79.0542L74.3346 71.5511C79.1565 68.0476 82.0186 62.4668 82.0186 56.514V21.231C82.0186 17.8205 79.2188 15.1541 75.8279 15.3092L71.1926 15.8362C59.1222 17.2004 46.9274 17.2004 34.8571 15.8362L30.1907 15.3092C26.7998 15.1851 24 17.8515 24 21.231V56.483C24 62.4358 26.862 68.0476 31.684 71.5511Z" fill="url(#paint0_linear_1174_12847)"/>
<g opacity="0.2">
<path d="M65.1057 43.0271L59.7238 48.2668L60.9992 55.6459C61.0615 55.9559 60.9059 56.2969 60.657 56.483C60.5015 56.607 60.3148 56.638 60.1593 56.638C60.0349 56.638 59.8793 56.607 59.7549 56.545L53.0975 53.0725L46.409 56.545C46.1291 56.7 45.7558 56.669 45.5069 56.483C45.2269 56.2969 45.1025 55.9559 45.1647 55.6459L46.4402 48.2668L41.0583 43.0271C40.8094 42.81 40.7472 42.469 40.8405 42.1589C40.9338 41.8489 41.2138 41.6319 41.5249 41.5699L48.96 40.4847L52.2887 33.7568C52.5687 33.1677 53.533 33.1677 53.8441 33.7568L57.1728 40.4847L64.6079 41.5699C64.919 41.6319 65.199 41.8489 65.2923 42.1589C65.4167 42.469 65.3234 42.81 65.1057 43.0271Z" fill="black"/>
</g>
<path d="M65.1052 41.7868L59.7233 47.0266L60.9988 54.4056C61.061 54.7157 60.9054 55.0567 60.6566 55.2427C60.501 55.3668 60.3144 55.3978 60.1588 55.3978C60.0344 55.3978 59.8788 55.3668 59.7544 55.3047L53.097 51.8323L46.4086 55.3047C46.1286 55.4598 45.7553 55.4288 45.5064 55.2427C45.2264 55.0567 45.102 54.7157 45.1642 54.4056L46.4397 47.0266L41.0578 41.7868C40.8089 41.5698 40.7467 41.2288 40.84 40.9187C40.9333 40.6087 41.2133 40.3916 41.5244 40.3296L48.9595 39.2445L52.2882 32.5165C52.5682 31.9274 53.5326 31.9274 53.8436 32.5165L57.1723 39.2445L64.6074 40.3296C64.9185 40.3916 65.1985 40.6087 65.2918 40.9187C65.4163 41.2288 65.3229 41.5698 65.1052 41.7868Z" fill="white"/>
<defs>
<linearGradient id="paint0_linear_1174_12847" x1="24" y1="48.9665" x2="82.0061" y2="48.9665" gradientUnits="userSpaceOnUse">
<stop stop-color="#DCB45A"/>
<stop offset="0.1499" stop-color="#CFA84F"/>
<stop offset="0.4257" stop-color="#AD8733"/>
<stop offset="0.5" stop-color="#A37D2B"/>
<stop offset="0.5833" stop-color="#AD8634"/>
<stop offset="0.8439" stop-color="#C69F4A"/>
<stop offset="1" stop-color="#D0A853"/>
</linearGradient>
</defs>
</svg>
