<?xml version="1.0" encoding="UTF-8"?><svg id="_1._Color_Logos" xmlns="http://www.w3.org/2000/svg" viewBox="0 0 836.82 138.69"><defs><style>.cls-1{fill:#232323;}.cls-1,.cls-2,.cls-3{fill-rule:evenodd;}.cls-1,.cls-2,.cls-3,.cls-4,.cls-5{stroke-width:0px;}.cls-2,.cls-4{fill:#6d6d6d;}.cls-3,.cls-5{fill:#afafaf;}</style></defs><path class="cls-1" d="m2.28,34.62c-1.49,0-2.28.69-2.28,2.18v9.72c0,1.49.79,2.28,2.28,2.28h31.15v53.07c0,1.49.69,2.18,2.18,2.18h10.81c1.49,0,2.18-.69,2.18-2.18v-53.07h31.15c1.49,0,2.28-.79,2.28-2.28v-9.72c0-1.49-.79-2.18-2.28-2.18H2.28Zm255.46-4.96c-1.49,0-2.18.69-2.18,2.18v70.03c0,1.49.69,2.18,2.18,2.18h9.72c1.49,0,2.18-.69,2.18-2.18v-39.68h36.4c8.53,0,10.22,2.58,10.22,10.91v28.77c0,1.49.69,2.18,2.18,2.18h9.72c1.49,0,2.18-.69,2.18-2.18v-32.14c0-14.38-5.75-20.14-23.61-20.14h-37.1v-17.76c0-1.49-.69-2.18-2.18-2.18h-9.72Zm-58.8,19.94c-17.85,0-23.61,5.75-23.61,20.14v14.28c0,14.38,5.75,20.04,23.61,20.04h39.87c1.19,0,1.79-.59,1.79-1.79v-8.33c0-1.19-.6-1.79-1.79-1.79h-38.49c-8.63,0-10.81-2.58-10.81-10.91v-8.83c0-8.33,2.18-10.91,10.81-10.91h38.49c1.19,0,1.79-.5,1.79-1.79v-8.33c0-1.19-.6-1.79-1.79-1.79h-39.87Zm-83.5,0c-17.85,0-23.61,5.75-23.61,20.14v14.28c0,14.38,5.75,20.04,23.61,20.04h42.75c1.19,0,1.79-.59,1.79-1.79v-8.33c0-1.19-.6-1.79-1.79-1.79h-41.36c-8.63,0-10.91-2.58-10.91-8.83v-2.38h50.09c3.87,0,5.65-1.39,5.65-5.65v-9.42c0-12-3.57-16.27-17.16-16.27h-29.06Zm-9.52,19.84c0-6.35,2.28-8.83,10.91-8.83h24.9c4.56,0,6.05,1.59,6.05,5.65v4.17c0,1.29-.5,1.69-1.69,1.69h-40.17v-2.68Z"/><path class="cls-1" d="m492.72,49.6c-17.85,0-23.61,5.75-23.61,20.14v14.28c0,14.38,5.75,20.04,23.61,20.04h42.75c1.19,0,1.79-.59,1.79-1.79v-8.33c0-1.19-.6-1.79-1.79-1.79h-41.36c-8.63,0-10.91-2.58-10.91-8.83v-2.38h50.09c3.87,0,5.65-1.39,5.65-5.65v-9.42c0-12-3.57-16.27-17.16-16.27h-29.06Zm300.75,0c-1.19,0-1.79.6-1.79,1.79v8.13c0,1.19.59,1.79,1.79,1.79h9.42v23.01c0,14.08,4.27,19.74,20.14,19.74h12c1.29,0,1.78-.59,1.78-1.79v-8.13c0-1.19-.5-1.79-1.78-1.79h-9.62c-6.55,0-8.33-2.58-8.33-8.03v-23.01h17.36c1.29,0,1.79-.59,1.79-1.79v-8.13c0-1.19-.5-1.79-1.79-1.79h-17.36v-13.09c0-1.49-.79-2.18-2.18-2.18h-9.82c-1.39,0-2.18.69-2.18,2.18v13.09h-9.42Zm-67.03,0c-17.85,0-23.61,5.75-23.61,20.14v32.14c0,1.49.79,2.18,2.28,2.18h9.72c1.49,0,2.18-.69,2.18-2.18v-28.77c0-8.33,2.28-10.91,10.81-10.91h26.38c8.53,0,10.22,2.58,10.22,10.91v28.77c0,1.49.69,2.18,2.18,2.18h9.72c1.49,0,2.18-.69,2.18-2.18v-32.14c0-14.38-5.75-20.14-23.61-20.14h-28.47Zm-85.58,0c-17.85,0-23.61,5.75-23.61,20.14v14.28c0,14.38,5.75,20.04,23.61,20.04h42.75c1.19,0,1.79-.59,1.79-1.79v-8.33c0-1.19-.6-1.79-1.79-1.79h-41.36c-8.63,0-10.91-2.58-10.91-8.83v-2.38h50.09c3.87,0,5.65-1.39,5.65-5.65v-9.42c0-12-3.57-16.27-17.16-16.27h-29.06Zm-9.52,19.84c0-6.35,2.28-8.83,10.91-8.83h24.9c4.56,0,6.05,1.59,6.05,5.65v4.17c0,1.29-.5,1.69-1.69,1.69h-40.17v-2.68h0Zm-41.84-39.78c-1.49,0-2.18.69-2.18,2.18v70.03c0,1.49.69,2.18,2.18,2.18h9.72c1.49,0,2.18-.69,2.18-2.18V31.84c0-1.49-.69-2.18-2.18-2.18h-9.72Zm-32.22,0c-1.49,0-2.18.69-2.18,2.18v70.03c0,1.49.69,2.18,2.18,2.18h9.72c1.49,0,2.18-.69,2.18-2.18V31.84c0-1.49-.69-2.18-2.18-2.18h-9.72Zm-74.07,39.78c0-6.35,2.28-8.83,10.91-8.83h24.9c4.56,0,6.05,1.59,6.05,5.65v4.17c0,1.29-.5,1.69-1.69,1.69h-40.17v-2.68Z"/><rect class="cls-4" x="352.82" y="4.29" width="4.45" height="4.95" transform="translate(99.27 253.1) rotate(-45.01)"/><polygon class="cls-2" points="405.03 53.59 388.08 36.65 382.77 31.33 361.27 9.83 358.12 12.97 358.12 12.99 355.21 10.08 352.05 13.21 358.81 20 384.06 45.24 405.01 66.21 408.16 69.34 405.01 72.48 384.06 93.45 358.81 118.69 352.05 125.47 355.21 128.6 358.12 125.7 358.12 125.72 361.27 128.85 382.77 107.36 388.08 102.04 405.03 85.09 420.78 69.34 405.03 53.59"/><rect class="cls-4" x="352.57" y="129.69" width="4.95" height="4.45" transform="translate(10.72 289.73) rotate(-45.01)"/><polygon class="cls-3" points="437.63 52.39 442.95 47.08 490.38 .39 458.88 .39 421.89 36.64 408.38 50.15 424.13 65.9 437.63 52.39"/><polygon class="cls-3" points="437.63 86.28 424.13 72.77 408.38 88.51 421.89 102.02 426.03 106.17 426.12 106.17 458.88 138.28 490.38 138.28 442.95 91.59 437.63 86.28"/><rect class="cls-5" x="326.06" y="4.14" width="4.45" height="4.37" transform="translate(91.66 233.96) rotate(-44.99)"/><rect class="cls-5" x="335.55" y=".89" width="4.45" height="4.66" transform="translate(96.63 239.77) rotate(-45)"/><rect class="cls-5" x="326.1" y="130.13" width="4.37" height="4.45" transform="translate(2.66 271.12) rotate(-45.04)"/><rect class="cls-5" x="335.44" y="133.24" width="4.66" height="4.45" transform="translate(3.16 278.55) rotate(-45.01)"/><polygon class="cls-3" points="328.26 129.24 338.78 118.69 345.09 118.69 334.7 129.1 337.83 132.23 351.38 118.69 376.1 93.97 376.1 93.97 400.72 69.34 376.1 44.71 376.1 44.71 351.38 20 337.83 6.45 334.7 9.59 345.09 20 338.78 20 328.26 9.45 325.1 12.61 357.21 44.71 357.19 44.71 359.58 47.1 364.9 52.42 381.84 69.34 364.9 86.27 359.58 91.58 357.19 93.97 357.21 93.97 325.1 126.08 328.26 129.24"/></svg>